Coordinates
version=1
nRows=14
nColumns=24
inDegrees=yes

Units are S.I. units (second, meters, Newtons, ...)
Angles are in degrees.

endheader
time	pelvis_tilt	pelvis_list	pelvis_rotation	pelvis_tx	pelvis_ty	pelvis_tz	hip_flexion_r	hip_adduction_r	hip_rotation_r	knee_angle_r	ankle_angle_r	subtalar_angle_r	mtp_angle_r	hip_flexion_l	hip_adduction_l	hip_rotation_l	knee_angle_l	ankle_angle_l	subtalar_angle_l	mtp_angle_l	lumbar_extension	lumbar_bending	lumbar_rotation
      1.59000000	     -8.79749591	      3.68562620	    357.32674922	     -0.62606678	      1.36589108	     -1.01745832	      2.61331001	     -0.68522035	      9.59388512	    -16.12178343	     11.85928615	     -8.43829030	      5.05500695	     26.34526730	      2.93251970	     -4.35013727	      2.55861424	     -7.10486335	      4.72058079	     31.55703402	     -8.60372273	      2.26552303	      6.56974069
      1.59500000	     -8.76887253	      3.74773469	    357.37053608	     -0.62064747	      1.36532533	     -1.01822682	      2.23326115	     -0.79832964	      9.64185769	    -16.11421670	     11.87417850	     -8.64449365	      5.06020437	     26.50893839	      3.04928780	     -3.99841014	      1.51761530	     -6.99760303	      3.71145459	     31.29752243	     -8.60096644	      2.14575082	      6.50157763
      1.60000000	     -8.76342137	      3.80865761	    357.37921766	     -0.61535945	      1.36475144	     -1.01898557	      1.91376827	     -0.91162393	      9.65373255	    -16.15318877	     11.90070453	     -8.74867925	      5.15389586	     26.70495961	      3.17004366	     -3.64640114	      0.48244271	     -7.20478133	      2.43563864	     30.83359438	     -8.61065541	      2.02236346	      6.45093724
      1.60500000	     -8.68429596	      3.93614916	    357.37922602	     -0.60996065	      1.36426289	     -1.01978368	      1.53371425	     -1.12324557	      9.56191203	    -16.23287540	     12.01622900	     -8.59949009	      5.31270741	     26.80383568	      3.38471616	     -3.50135223	     -0.43538145	     -7.92410657	      1.16877396	     30.07623039	     -8.69983963	      1.85522418	      6.36632871
      1.61000000	     -8.65076186	      4.10167373	    357.42962617	     -0.60439321	      1.36377393	     -1.02063070	      1.17141561	     -1.39188175	      9.37013422	    -16.27559231	     12.15497533	     -8.35606794	      5.49278761	     26.90346451	      3.68333189	     -3.43938153	     -1.11405551	     -9.10024187	     -0.33821530	     29.13224265	     -8.67314124	      1.63190147	      6.27659674
      1.61500000	     -8.59021947	      4.35833006	    357.45311660	     -0.59892808	      1.36341584	     -1.02123673	      0.82925621	     -1.73189906	      9.28345832	    -16.38988429	     12.27139957	     -8.19801064	      5.67854975	     26.96142385	      4.04491943	     -3.49271522	     -1.67066092	    -10.00479706	     -1.77560385	     28.45926005	     -8.70986257	      1.25617992	      6.19154484
      1.62000000	     -8.54992968	      4.60680012	    357.52184206	     -0.59350731	      1.36316079	     -1.02181081	      0.51313928	     -2.04895363	      9.16396318	    -16.51756810	     12.29551563	     -8.14611469	      5.86885143	     27.00720625	      4.39377643	     -3.57935245	     -2.11870436	    -10.30125843	     -2.41591870	     28.31356993	     -8.73164404	      0.88621586	      6.11237732
      1.62500000	     -8.58545579	      4.75117862	    357.60758331	     -0.58824385	      1.36296023	     -1.02246152	      0.28799741	     -2.21299510	      9.23282846	    -16.64670475	     12.07595295	     -8.52936016	      6.00624111	     27.10616136	      4.63846956	     -3.35867965	     -2.50792816	    -10.35538256	     -2.62537249	     28.66605276	     -8.69398625	      0.63287062	      5.98426637
      1.63000000	     -8.57665052	      4.92430263	    357.69731498	     -0.58289929	      1.36282923	     -1.02312025	      0.04546575	     -2.41438659	      9.16380295	    -16.84073534	     11.85952055	     -8.77330459	      6.24081518	     27.07255057	      4.93463434	     -2.90081405	     -2.79588693	    -10.63730782	     -2.81540176	     28.82236048	     -8.69251674	      0.32895925	      5.87613865
      1.63500000	     -8.70422936	      5.06730949	    357.80298184	     -0.57748657	      1.36253912	     -1.02370148	      0.00429662	     -2.57509703	      9.02601320	    -17.15613135	     11.71914515	     -8.85344200	      6.45610238	     27.13338852	      5.19518889	     -2.49321161	     -3.04119842	    -11.22952628	     -2.96862808	     29.08952597	     -8.52683099	      0.05510126	      5.76252328
      1.64000000	     -8.77922497	      5.22743309	    357.86697162	     -0.57221414	      1.36235139	     -1.02431182	     -0.01792844	     -2.76960635	      8.83023394	    -17.58344443	     11.61796642	     -8.68562723	      6.71156093	     27.15177642	      5.45761283	     -2.32415511	     -3.34536258	    -12.09540816	     -3.11771075	     30.11814999	     -8.43735120	     -0.21878842	      5.67153715
      1.64500000	     -8.85334685	      5.37889688	    357.97273476	     -0.56694771	      1.36220587	     -1.02502954	     -0.03712069	     -2.96799588	      8.59869018	    -18.01721343	     11.45575334	     -8.58887903	      6.99531255	     27.16688123	      5.72736189	     -2.20254524	     -3.72894967	    -12.71039809	     -2.96676069	     30.94049785	     -8.38256885	     -0.45971311	      5.53928165
      1.65000000	     -8.96703719	      5.48024853	    358.08722047	     -0.56173322	      1.36215056	     -1.02573908	      0.03699924	     -3.09705335	      8.38296570	    -18.54318393	     11.15956139	     -8.61724357	      7.29124213	     27.25665614	      5.93523077	     -2.05227422	     -4.21683040	    -12.99925327	     -2.79176797	     31.52880130	     -8.29641781	     -0.65452444	      5.44061578
      1.65500000	     -9.08126970	      5.55177344	    358.19530567	     -0.55649356	      1.36220223	     -1.02654320	      0.15741154	     -3.17762733	      8.24609169	    -19.16065002	     10.74784433	     -8.76711471	      7.59419889	     27.33157116	      6.11484661	     -1.88760345	     -4.68459755	    -13.20093276	     -2.99237849	     31.62303446	     -8.18263152	     -0.79686637	      5.36201358
